REM DIRINDEX 1\8,1\2\11,1\3\12,1\3\14,1\5\15,1\5\16,1\6\17,1\6\18,1\4\19,1\4\20,1\4\21,1\4\22,1\7\23,1\7\24,1\7\25,1\2\9\26,1\2\9\27,1\2\10\28,1\2\10\29,1\2\10\30,1\2\10\31,1\2\10\32,1\3\13\33,1\3\13\34,1\3\13\35
REM DIRNAME folder01,folder02,folder03,folder04,folder05,folder06,folder07,folder08,folder09,folder10,folder11,folder12,folder13,folder14,folder15,folder16,folder17,folder18,folder19,folder20,folder21,folder22,folder23,folder24,folder25,folder26,folder27,folder28,folder29,folder30,folder31,folder32,folder33,folder34,folder35
TITLE ""
FILE "65 065_UNIT6_SET6.mp3" MP3
  TRACK 01 AUDIO
    TITLE "11:cjc123_6489"
    INDEX 01 00:00:00
  TRACK 02 AUDIO
    TITLE "0:"
    INDEX 01 00:02:67
  TRACK 03 AUDIO
    TITLE "28:cjc123_6490"
    INDEX 01 00:03:39
  TRACK 04 AUDIO
    TITLE "0:"
    INDEX 01 00:04:68
  TRACK 05 AUDIO
    TITLE "29:cjc123_6491"
    INDEX 01 00:05:18
  TRACK 06 AUDIO
    TITLE "0:"
    INDEX 01 00:06:71
  TRACK 07 AUDIO
    TITLE "30:cjc123_6492"
    INDEX 01 00:07:02
  TRACK 08 AUDIO
    TITLE "0:"
    INDEX 01 00:08:38
  TRACK 09 AUDIO
    TITLE "31:cjc123_6493"
    INDEX 01 00:09:06
  TRACK 10 AUDIO
    TITLE "0:"
    INDEX 01 00:15:56
  TRACK 11 AUDIO
    TITLE "32:cjc123_6494"
    INDEX 01 00:16:40
  TRACK 12 AUDIO
    TITLE "0:"
    INDEX 01 00:22:56
  TRACK 13 AUDIO
    TITLE "28:cjc123_6495"
    INDEX 01 00:23:08
  TRACK 14 AUDIO
    TITLE "0:"
    INDEX 01 00:24:35
  TRACK 15 AUDIO
    TITLE "29:cjc123_6496"
    INDEX 01 00:24:45
  TRACK 16 AUDIO
    TITLE "0:"
    INDEX 01 00:26:30
  TRACK 17 AUDIO
    TITLE "30:cjc123_6497"
    INDEX 01 00:26:40
  TRACK 18 AUDIO
    TITLE "0:"
    INDEX 01 00:27:65
  TRACK 19 AUDIO
    TITLE "31:cjc123_6498"
    INDEX 01 00:28:41
  TRACK 20 AUDIO
    TITLE "0:"
    INDEX 01 00:34:02
  TRACK 21 AUDIO
    TITLE "32:cjc123_6499"
    INDEX 01 00:34:40
  TRACK 22 AUDIO
    TITLE "0:"
    INDEX 01 00:40:05
  TRACK 23 AUDIO
    TITLE "28:cjc123_6500"
    INDEX 01 00:40:48
  TRACK 24 AUDIO
    TITLE "0:"
    INDEX 01 00:41:61
  TRACK 25 AUDIO
    TITLE "29:cjc123_6501"
    INDEX 01 00:42:02
  TRACK 26 AUDIO
    TITLE "0:"
    INDEX 01 00:43:25
  TRACK 27 AUDIO
    TITLE "30:cjc123_6502"
    INDEX 01 00:43:37
  TRACK 28 AUDIO
    TITLE "0:"
    INDEX 01 00:44:46
  TRACK 29 AUDIO
    TITLE "31:cjc123_6503"
    INDEX 01 00:45:20
  TRACK 30 AUDIO
    TITLE "0:"
    INDEX 01 00:50:68
  TRACK 31 AUDIO
    TITLE "32:cjc123_6504"
    INDEX 01 00:51:52
  TRACK 32 AUDIO
    TITLE "0:"
    INDEX 01 00:58:58
  TRACK 33 AUDIO
    TITLE "28:cjc123_6505"
    INDEX 01 00:59:20
  TRACK 34 AUDIO
    TITLE "0:"
    INDEX 01 01:00:21
  TRACK 35 AUDIO
    TITLE "29:cjc123_6506"
    INDEX 01 01:00:29
  TRACK 36 AUDIO
    TITLE "0:"
    INDEX 01 01:01:23
  TRACK 37 AUDIO
    TITLE "30:cjc123_6507"
    INDEX 01 01:01:36
  TRACK 38 AUDIO
    TITLE "0:"
    INDEX 01 01:02:50
  TRACK 39 AUDIO
    TITLE "31:cjc123_6508"
    INDEX 01 01:03:24
  TRACK 40 AUDIO
    TITLE "0:"
    INDEX 01 01:07:35
  TRACK 41 AUDIO
    TITLE "32:cjc123_6509"
    INDEX 01 01:08:03
  TRACK 42 AUDIO
    TITLE "0:"
    INDEX 01 01:12:23
  TRACK 43 AUDIO
    TITLE "28:cjc123_6510"
    INDEX 01 01:12:70
  TRACK 44 AUDIO
    TITLE "0:"
    INDEX 01 01:13:71
  TRACK 45 AUDIO
    TITLE "29:cjc123_6511"
    INDEX 01 01:14:04
  TRACK 46 AUDIO
    TITLE "0:"
    INDEX 01 01:15:19
  TRACK 47 AUDIO
    TITLE "30:cjc123_6512"
    INDEX 01 01:15:29
  TRACK 48 AUDIO
    TITLE "0:"
    INDEX 01 01:16:20
  TRACK 49 AUDIO
    TITLE "31:cjc123_6513"
    INDEX 01 01:16:67
  TRACK 50 AUDIO
    TITLE "0:"
    INDEX 01 01:25:29
  TRACK 51 AUDIO
    TITLE "32:cjc123_6514"
    INDEX 01 01:25:62
  TRACK 52 AUDIO
    TITLE "0:"
    INDEX 01 01:36:23
  TRACK 53 AUDIO
    TITLE "28:cjc123_6515"
    INDEX 01 01:36:66
  TRACK 54 AUDIO
    TITLE "0:"
    INDEX 01 01:38:00
  TRACK 55 AUDIO
    TITLE "29:cjc123_6516"
    INDEX 01 01:38:08
  TRACK 56 AUDIO
    TITLE "0:"
    INDEX 01 01:39:27
  TRACK 57 AUDIO
    TITLE "30:cjc123_6517"
    INDEX 01 01:39:31
  TRACK 58 AUDIO
    TITLE "0:"
    INDEX 01 01:40:56
  TRACK 59 AUDIO
    TITLE "31:cjc123_6518"
    INDEX 01 01:41:32
  TRACK 60 AUDIO
    TITLE "0:"
    INDEX 01 01:47:52
  TRACK 61 AUDIO
    TITLE "32:cjc123_6519"
    INDEX 01 01:48:18
  TRACK 62 AUDIO
    TITLE "0:"
    INDEX 01 01:56:20
  TRACK 63 AUDIO
    TITLE "28:cjc123_6520"
    INDEX 01 01:56:39
  TRACK 64 AUDIO
    TITLE "0:"
    INDEX 01 01:57:62
  TRACK 65 AUDIO
    TITLE "29:cjc123_6521"
    INDEX 01 01:57:70
  TRACK 66 AUDIO
    TITLE "0:"
    INDEX 01 01:59:40
  TRACK 67 AUDIO
    TITLE "30:cjc123_6522"
    INDEX 01 01:59:50
  TRACK 68 AUDIO
    TITLE "0:"
    INDEX 01 02:00:69
  TRACK 69 AUDIO
    TITLE "31:cjc123_6523"
    INDEX 01 02:01:39
  TRACK 70 AUDIO
    TITLE "0:"
    INDEX 01 02:09:24
  TRACK 71 AUDIO
    TITLE "32:cjc123_6524"
    INDEX 01 02:09:66
  TRACK 72 AUDIO
    TITLE "0:"
    INDEX 01 02:16:56
  TRACK 73 AUDIO
    TITLE "28:cjc123_6525"
    INDEX 01 02:17:26
  TRACK 74 AUDIO
    TITLE "0:"
    INDEX 01 02:18:23
  TRACK 75 AUDIO
    TITLE "29:cjc123_6526"
    INDEX 01 02:18:37
  TRACK 76 AUDIO
    TITLE "0:"
    INDEX 01 02:19:74
  TRACK 77 AUDIO
    TITLE "30:cjc123_6527"
    INDEX 01 02:20:09
  TRACK 78 AUDIO
    TITLE "0:"
    INDEX 01 02:21:16
  TRACK 79 AUDIO
    TITLE "31:cjc123_6528"
    INDEX 01 02:21:63
  TRACK 80 AUDIO
    TITLE "0:"
    INDEX 01 02:25:61
  TRACK 81 AUDIO
    TITLE "32:cjc123_6529"
    INDEX 01 02:26:33
  TRACK 82 AUDIO
    TITLE "0:"
    INDEX 01 02:30:56
  TRACK 83 AUDIO
    TITLE "28:cjc123_6530"
    INDEX 01 02:31:28
  TRACK 84 AUDIO
    TITLE "0:"
    INDEX 01 02:32:14
  TRACK 85 AUDIO
    TITLE "29:cjc123_6531"
    INDEX 01 02:32:31
  TRACK 86 AUDIO
    TITLE "0:"
    INDEX 01 02:33:68
  TRACK 87 AUDIO
    TITLE "30:cjc123_6532"
    INDEX 01 02:33:74
  TRACK 88 AUDIO
    TITLE "0:"
    INDEX 01 02:34:66
  TRACK 89 AUDIO
    TITLE "31:cjc123_6533"
    INDEX 01 02:35:38
  TRACK 90 AUDIO
    TITLE "0:"
    INDEX 01 02:43:08
  TRACK 91 AUDIO
    TITLE "32:cjc123_6534"
    INDEX 01 02:43:55
  TRACK 92 AUDIO
    TITLE "0:"
    INDEX 01 02:51:13
  TRACK 93 AUDIO
    TITLE "28:cjc123_6535"
    INDEX 01 02:51:39
  TRACK 94 AUDIO
    TITLE "0:"
    INDEX 01 02:52:40
  TRACK 95 AUDIO
    TITLE "29:cjc123_6536"
    INDEX 01 02:52:54
  TRACK 96 AUDIO
    TITLE "0:"
    INDEX 01 02:54:29
  TRACK 97 AUDIO
    TITLE "30:cjc123_6537"
    INDEX 01 02:54:37
  TRACK 98 AUDIO
    TITLE "0:"
    INDEX 01 02:55:44
  TRACK 99 AUDIO
    TITLE "31:cjc123_6538"
    INDEX 01 02:56:26
  TRACK 100 AUDIO
    TITLE "0:"
    INDEX 01 03:02:48
  TRACK 101 AUDIO
    TITLE "32:cjc123_6539"
    INDEX 01 03:03:08
  TRACK 102 AUDIO
    TITLE "0:"
    INDEX 01 03:10:20
  TRACK 103 AUDIO
    TITLE "28:cjc123_6540"
    INDEX 01 03:10:57
  TRACK 104 AUDIO
    TITLE "0:"
    INDEX 01 03:12:25
  TRACK 105 AUDIO
    TITLE "29:cjc123_6541"
    INDEX 01 03:12:39
  TRACK 106 AUDIO
    TITLE "0:"
    INDEX 01 03:13:64
  TRACK 107 AUDIO
    TITLE "30:cjc123_6542"
    INDEX 01 03:13:71
  TRACK 108 AUDIO
    TITLE "0:"
    INDEX 01 03:15:15
  TRACK 109 AUDIO
    TITLE "31:cjc123_6543"
    INDEX 01 03:16:03
  TRACK 110 AUDIO
    TITLE "0:"
    INDEX 01 03:19:43
  TRACK 111 AUDIO
    TITLE "32:cjc123_6544"
    INDEX 01 03:19:52
  TRACK 112 AUDIO
    TITLE "0:"
    INDEX 01 03:23:17
  TRACK 113 AUDIO
    TITLE "28:cjc123_6545"
    INDEX 01 03:23:44
  TRACK 114 AUDIO
    TITLE "0:"
    INDEX 01 03:24:73
  TRACK 115 AUDIO
    TITLE "29:cjc123_6546"
    INDEX 01 03:25:00
  TRACK 116 AUDIO
    TITLE "0:"
    INDEX 01 03:26:35
  TRACK 117 AUDIO
    TITLE "30:cjc123_6547"
    INDEX 01 03:26:39
  TRACK 118 AUDIO
    TITLE "0:"
    INDEX 01 03:28:02
  TRACK 119 AUDIO
    TITLE "31:cjc123_6548"
    INDEX 01 03:28:44
  TRACK 120 AUDIO
    TITLE "0:"
    INDEX 01 03:33:41
  TRACK 121 AUDIO
    TITLE "32:cjc123_6549"
    INDEX 01 03:33:58
  TRACK 122 AUDIO
    TITLE "0:"
    INDEX 01 03:38:15
  TRACK 123 AUDIO
    TITLE "28:cjc123_6550"
    INDEX 01 03:38:44
  TRACK 124 AUDIO
    TITLE "0:"
    INDEX 01 03:39:65
  TRACK 125 AUDIO
    TITLE "29:cjc123_6551"
    INDEX 01 03:40:00
  TRACK 126 AUDIO
    TITLE "0:"
    INDEX 01 03:41:56
  TRACK 127 AUDIO
    TITLE "30:cjc123_6552"
    INDEX 01 03:41:64
  TRACK 128 AUDIO
    TITLE "0:"
    INDEX 01 03:43:02
  TRACK 129 AUDIO
    TITLE "31:cjc123_6553"
    INDEX 01 03:43:49
  TRACK 130 AUDIO
    TITLE "0:"
    INDEX 01 03:48:19
  TRACK 131 AUDIO
    TITLE "32:cjc123_6554"
    INDEX 01 03:48:60
  TRACK 132 AUDIO
    TITLE "0:"
    INDEX 01 03:53:14
  TRACK 133 AUDIO
    TITLE "28:cjc123_6555"
    INDEX 01 03:53:40
  TRACK 134 AUDIO
    TITLE "0:"
    INDEX 01 03:54:70
  TRACK 135 AUDIO
    TITLE "29:cjc123_6556"
    INDEX 01 03:55:05
  TRACK 136 AUDIO
    TITLE "0:"
    INDEX 01 03:56:26
  TRACK 137 AUDIO
    TITLE "30:cjc123_6557"
    INDEX 01 03:56:34
  TRACK 138 AUDIO
    TITLE "0:"
    INDEX 01 03:57:53
  TRACK 139 AUDIO
    TITLE "31:cjc123_6558"
    INDEX 01 03:58:31
  TRACK 140 AUDIO
    TITLE "0:"
    INDEX 01 04:04:59
  TRACK 141 AUDIO
    TITLE "32:cjc123_6559"
    INDEX 01 04:05:15
  TRACK 142 AUDIO
    TITLE "0:"
    INDEX 01 04:12:35
  TRACK 143 AUDIO
    TITLE "28:cjc123_6560"
    INDEX 01 04:12:47
  TRACK 144 AUDIO
    TITLE "0:"
    INDEX 01 04:13:56
  TRACK 145 AUDIO
    TITLE "29:cjc123_6561"
    INDEX 01 04:13:64
  TRACK 146 AUDIO
    TITLE "0:"
    INDEX 01 04:15:26
  TRACK 147 AUDIO
    TITLE "30:cjc123_6562"
    INDEX 01 04:15:35
  TRACK 148 AUDIO
    TITLE "0:"
    INDEX 01 04:16:43
  TRACK 149 AUDIO
    TITLE "31:cjc123_6563"
    INDEX 01 04:17:26
  TRACK 150 AUDIO
    TITLE "0:"
    INDEX 01 04:21:28
  TRACK 151 AUDIO
    TITLE "32:cjc123_6564"
    INDEX 01 04:21:46
  TRACK 152 AUDIO
    TITLE "0:"
    INDEX 01 04:26:16
